<svg width="140" height="46" viewBox="0 0 140 46" fill="none" xmlns="http://www.w3.org/2000/svg">
<path d="M12.0198 26.1307C15.149 26.1307 17.6593 25.2362 19.3786 23.5505C21.1324 21.8303 22.3016 19.078 22.3359 16.6353H19.2755C18.966 20.2477 16.7652 23.4128 12.1229 23.4128C6.9992 23.4128 3.66363 19.3532 3.66363 13.3326C3.66363 7.55275 6.68972 3.18348 12.0885 3.18348C15.9743 3.18348 18.4158 5.28211 19.0004 8.34404H22.0265C21.3731 3.80275 17.9 0.5 12.1573 0.5C4.8328 0.5 0.5 6.1078 0.5 13.3326C0.5 20.7982 5.03913 26.1307 12.0198 26.1307Z" fill="#151617"/>
<path d="M25.8085 25.6491H28.9034V15.2592H35.7465C39.0476 15.2592 40.4919 16.5321 40.7326 20.1445C41.0077 24.2729 41.1109 25.2018 41.6267 25.6491H44.9623V25.5115C44.5152 25.2018 44.1026 24.2041 43.8275 20.2477C43.5868 16.6009 42.7959 14.8807 40.2856 13.9862V13.883C43.2429 12.9197 44.5496 10.7867 44.5496 7.79358C44.5496 3.76835 41.6267 1.05046 37.2939 1.05046H25.8085V25.6491ZM28.9034 3.73394H36.3654C39.9761 3.73394 41.3516 5.2477 41.3516 8.24082C41.3516 11.0275 39.6322 12.7477 36.1935 12.7477H28.9034V3.73394Z" fill="#151617"/>
<path d="M48.308 25.6491H66.0863V22.7936H51.4029V14.1583H64.3669V11.5436H51.4029V3.76835H65.6736V1.05046H48.308V25.6491Z" fill="#151617"/>
<path d="M69.6994 25.6491H78.3994C85.7926 25.6491 89.5409 20.7982 89.5409 13.4358C89.5409 6.07339 86.0334 1.05046 78.6401 1.05046H69.6994V25.6491ZM72.7942 22.9312V3.73394H78.5369C84.314 3.73394 86.3772 7.65596 86.3772 13.4358C86.3772 19.2156 84.0733 22.9312 78.2962 22.9312H72.7942Z" fill="#151617"/>
<path d="M93.2751 25.6491H96.37V1.05046H93.2751V25.6491Z" fill="#151617"/>
<path d="M99.4834 3.76835H107.668V25.6491H110.762V3.76835H118.947V1.05046H99.4834V3.76835Z" fill="#151617"/>
<path d="M130.456 26.1307C135.752 26.1307 139.5 23.5505 139.5 18.9404C139.5 13.4014 135.133 12.2317 130.353 11.2683C126.674 10.5459 123.923 9.72018 123.923 6.93349C123.923 4.38761 126.123 2.97706 129.459 2.97706C133.07 2.97706 135.339 4.73165 135.786 8.24082H138.709C138.09 3.69954 135.545 0.568806 129.39 0.568806C124.404 0.568806 121.034 3.01147 121.034 7.0711C121.034 11.7156 124.748 12.9541 129.081 13.9174C133.482 14.8807 136.44 15.672 136.44 19.0436C136.44 22.1055 133.998 23.6537 130.594 23.6537C125.951 23.6537 123.407 21.4862 122.994 17.3234H119.968C120.243 22.2775 123.544 26.1307 130.456 26.1307Z" fill="#151617"/>
<path d="M29.7533 45.2592H31.3008V32.9599H29.7533V45.2592Z" fill="#151617"/>
<path d="M33.6312 45.2592H35.0754V35.1617H35.1098C35.1098 35.1617 35.6256 36.0906 36.0211 36.6927L41.6606 45.2592H43.2424V32.9599H41.7982V43.0917H41.7638C41.7638 43.0917 41.2824 42.1456 40.8697 41.5092L35.2646 32.9599H33.6312V45.2592Z" fill="#151617"/>
<path d="M50.8482 45.5C52.4128 45.5 53.668 45.0528 54.5276 44.2099C55.4045 43.3498 55.9891 41.9736 56.0063 40.7523H54.4761C54.3213 42.5585 53.2209 44.1411 50.8998 44.1411C48.3379 44.1411 46.6702 42.1112 46.6702 39.1009C46.6702 36.211 48.1832 34.0264 50.8826 34.0264C52.8255 34.0264 54.0462 35.0757 54.3385 36.6067H55.8516C55.5249 34.336 53.7883 32.6846 50.917 32.6846C47.2547 32.6846 45.0883 35.4885 45.0883 39.1009C45.0883 42.8337 47.3579 45.5 50.8482 45.5Z" fill="#151617"/>
<path d="M57.7426 45.2592H65.7376V43.8314H59.29V32.9599H57.7426V45.2592Z" fill="#151617"/>
<path d="M71.4318 45.4484C74.0625 45.4484 76.1429 44.2615 76.1429 41.2856V32.9599H74.5955V41.1307C74.5955 43.2294 73.4263 44.1239 71.4834 44.1239C69.4546 44.1239 68.2682 43.2294 68.2682 41.1307V32.9599H66.7208V41.2856C66.7208 44.2615 68.7496 45.4484 71.4318 45.4484Z" fill="#151617"/>
<path d="M78.244 45.2592H82.594C86.2907 45.2592 88.1648 42.8337 88.1648 39.1525C88.1648 35.4713 86.411 32.9599 82.7144 32.9599H78.244V45.2592ZM79.7915 43.9002V34.3016H82.6628C85.5513 34.3016 86.5829 36.2626 86.5829 39.1525C86.5829 42.0424 85.431 43.9002 82.5424 43.9002H79.7915Z" fill="#151617"/>
<path d="M89.9975 45.2592H98.8866V43.8314H91.5449V39.5138H98.0269V38.2064H91.5449V34.3188H98.6803V32.9599H89.9975V45.2592Z" fill="#151617"/>
<path d="M100.693 45.2592H105.043C108.74 45.2592 110.614 42.8337 110.614 39.1525C110.614 35.4713 108.86 32.9599 105.164 32.9599H100.693V45.2592ZM102.241 43.9002V34.3016H105.112C108 34.3016 109.032 36.2626 109.032 39.1525C109.032 42.0424 107.88 43.9002 104.992 43.9002H102.241Z" fill="#151617"/>
</svg>
